<svg width="174" height="65" viewBox="0 0 174 65" fill="none" xmlns="http://www.w3.org/2000/svg">
<path fill-rule="evenodd" clip-rule="evenodd" d="M31.9807 0.367912C31.7158 0.548996 31.4027 0.862953 31.1962 1.15173C30.7833 1.77054 29.9988 2.80193 29.8336 3.09071L29.7098 3.21447C29.6272 3.42074 29.3663 3.82345 29.0661 4.19846C25.7609 8.86698 24.6041 10.0651 20.5966 14.2792C16.7544 18.2867 12.7852 22.1348 7.70653 26.1364C7.08681 26.5496 6.63389 26.8926 6.50841 27.004C6.38293 27.1155 6.25077 27.2063 6.13658 27.2932C5.94087 27.4422 5.14489 28.0784 4.89715 28.2434C4.83522 28.2847 4.12823 28.8455 3.16195 29.4829C1.22017 30.7636 0.510932 31.0666 0.228621 31.6312C-0.308469 32.7054 0.104677 33.5317 1.42674 34.3993C2.91406 35.3495 2.56653 35.1132 2.83143 35.3082L2.95537 35.3908C3.3153 35.6556 4.16699 36.2067 4.95069 36.7908C5.82905 37.4455 6.34491 37.8948 6.74923 38.1977C6.9723 38.3649 6.76317 38.2255 7.08384 38.4345C7.32086 38.589 7.39057 38.6434 7.73912 38.8803C8.01132 39.1134 8.57273 39.5752 9.03124 39.9525L9.03138 39.9526L9.13334 40.0365C12.0751 42.3627 15.2818 45.3159 18.8231 48.9098C22.1971 52.3365 24.651 54.9832 25.5154 56.1254C25.8221 56.5294 26.575 57.5045 27.1884 58.2706C28.7221 60.1929 29.9245 62.0254 30.6773 63.1955C31.3326 64.2123 31.7928 64.6001 32.5365 64.9307C33.1353 65.1968 34.3151 64.6575 34.7885 63.9818C34.9837 63.7032 35.2143 63.3641 35.284 63.2805C35.357 63.2076 35.6055 62.8016 35.9033 62.3724C35.9467 62.31 36.0242 62.2298 36.0685 62.1661C36.417 61.6647 36.8911 60.9875 37.142 60.681C37.3244 60.4684 37.6048 60.051 37.9265 59.6497C38.0475 59.4988 38.1877 59.2916 38.2982 59.1546C39.7481 57.3159 41.4314 55.13 41.8078 54.7817C41.8491 54.6992 42.5511 53.9154 43.4182 53.0078C45.0633 51.1412 50.1898 45.9946 52.4607 43.9732C54.1347 42.375 56.6311 40.3841 58.4891 38.8577C58.7006 38.6967 58.902 38.569 59.1085 38.4452C60.0582 37.7439 60.9046 37.0386 61.1364 36.8531L61.1368 36.8528L61.1794 36.8187C61.3188 36.7072 61.765 36.4147 61.765 36.4147L62.1135 36.1361C62.8106 35.6485 62.7007 35.6812 63.3201 35.2274C63.7068 34.9441 64.1195 34.6772 64.4762 34.4436C64.724 34.2786 64.9378 34.1086 65.0543 34.031C65.9627 33.206 66.2459 33.0772 65.9599 31.8378C65.8359 31.3007 64.927 30.7223 63.6876 29.9786C62.2416 29.0284 61.9524 28.8218 59.8453 27.2106C58.6244 26.2769 56.6228 24.8143 55.0528 23.4097C54.2442 22.7132 53.3904 21.8839 53.0697 21.6331C52.5818 21.2292 48.1879 17.0678 47.6163 16.4688C47.5047 16.3574 46.9211 15.7736 46.3355 15.1468C46.072 14.871 45.8397 14.6923 45.3853 14.1552C44.8482 13.6181 44.4832 13.2269 44.1458 12.8745C42.7411 11.4698 41.1712 9.61064 40.3862 8.66041C38.5091 6.38812 36.4614 3.41348 35.9243 2.62851C35.5897 2.12703 35.333 1.74788 35.2632 1.67828C35.1238 1.46928 35.1419 1.54368 34.9327 1.26513C34.6539 0.847191 34.361 0.483482 33.8172 0.190956C33.2388 -0.139557 32.4952 -0.0156174 31.9807 0.367912ZM36.5219 9.58494C36.1176 9.25057 35.3585 8.80579 34.3268 8.4854C32.6119 7.94213 30.9861 8.65364 29.3758 9.72625C28.846 10.1441 28.3875 10.4945 28.1784 10.6338C27.788 10.8846 27.5161 11.0908 26.5681 11.9127C26.2892 12.1495 25.7171 12.5851 25.5358 12.6965C24.0494 13.8929 19.5385 18.2342 18.1861 19.6272C15.7087 22.1789 14.9242 23.1337 13.804 24.4351C13.2742 25.048 12.9433 25.5254 12.8597 25.609C12.776 25.6786 12.4639 26.0858 12.199 26.434C11.9341 26.7823 11.54 27.3122 11.4145 27.4654C10.4386 28.6355 9.13282 30.4416 8.89581 31.0545C8.5242 31.8795 8.27645 32.3333 8.81323 33.6947C8.92799 33.9858 9.10226 34.396 9.30871 34.7673L9.72162 35.4686L10.1345 36.0874C10.2739 36.3103 10.5308 36.7309 10.7539 36.9538C10.9491 37.2184 10.9989 37.3084 11.2081 37.5313C11.4971 37.8394 15.5435 42.8531 18.1448 45.0808C23.9668 51.1451 30.1603 56.1537 31.8532 56.3843C32.7616 56.5081 33.381 57.1681 36.0236 55.3117C36.2187 55.1585 37.073 54.5766 37.8816 53.9916C38.6903 53.4065 39.3262 52.851 39.3681 52.7952C39.4099 52.7534 39.7397 52.5477 40.1526 52.1352C40.6127 51.773 41.0326 51.4349 41.1023 51.3513C41.1859 51.2678 41.8937 50.642 42.4235 50.1962C44.6532 48.3203 48.741 44.5445 51.879 40.8729C52.116 40.5804 52.6314 39.9846 52.9939 39.5528C53.6213 38.8563 55.3029 36.8755 55.5539 36.5412C56.6832 34.9672 57.4795 33.9401 57.5771 33.0347C57.6189 32.4914 57.5963 31.7761 57.2477 31.0378C57.0107 30.5502 56.6761 29.9652 56.4948 29.7284C54.15 26.1865 51.5868 23.5564 50.7642 22.7624C50.6527 22.651 50.191 22.1769 49.8145 21.7311C48.9061 20.741 45.1972 16.9785 43.9585 15.7821C43.4148 15.2946 42.7521 14.6714 42.306 14.2535C41.8598 13.8356 41.397 13.427 41.3144 13.3032C41.1889 13.2336 40.4235 12.7147 40.075 12.3943C39.1827 11.6003 37.5703 10.3156 37.4309 10.246C37.2217 10.1067 36.745 9.73812 36.5219 9.58494Z" fill="white"/>
<path d="M31.935 10.0565C31.4395 10.1803 30.1595 11.2529 28.5904 12.3667C27.5582 13.1506 27.4586 13.257 27.1453 13.4806C26.8642 13.6812 26.7737 13.7694 26.4021 14.0582C26.3195 14.0994 25.8653 14.4707 25.4937 14.8007C25.1221 15.1308 24.9239 15.2659 24.7504 15.4608C24.6389 15.5862 23.9182 16.2109 23.3466 16.6984C21.0756 18.5961 16.864 23.0102 15.6253 24.3716C15.1652 24.9149 14.7056 25.524 14.5104 25.733C13.8552 26.4295 11.6695 29.118 11.0421 30.0234C9.84464 31.4673 9.79864 32.8879 10.7328 34.3923C11.4717 35.5624 14.7899 39.5324 16.7558 41.594C17.6063 42.4716 19.0111 43.9388 19.0111 43.9672C20.3324 45.4523 25.9479 50.444 27.7646 51.8879C31.9033 55.1771 31.4808 54.9407 33.4214 55.0645C34.2059 54.9407 34.5362 54.7757 37.0962 52.8368C38.8717 51.5166 39.0852 51.2589 40.6885 49.9077C41.5143 49.1652 42.4704 48.361 43.0421 47.8038C43.7853 47.1437 44.6336 46.3229 45.024 45.9886C46.7995 44.5447 50.1027 40.9144 51.3827 39.4293C51.6058 39.1228 52.0846 38.6042 52.1259 38.5629C52.2085 38.4804 53.3737 37.0698 53.7362 36.624C54.273 35.8814 55.0162 35.1801 55.7182 33.8187C56.0946 33.0387 56.123 31.7807 55.6769 30.931C55.1889 29.9977 51.9967 26.0877 50.2679 24.1653C49.752 23.5942 48.8554 22.7686 48.4511 22.3089C46.8477 20.512 44.4938 18.2499 40.0741 14.3774C37.6366 12.477 35.5295 10.857 34.5793 10.2873C33.5471 9.66851 32.8433 9.64397 31.935 10.0565ZM34.3926 15.2945C35.8983 18.2198 36.6512 19.7521 36.7488 20.0307C36.8185 20.2396 36.7349 20.2814 36.1632 20.2814C35.0897 20.2814 35.2152 19.8774 34.8945 24.8783C34.8109 26.1459 34.7133 27.4971 34.6575 27.8871C34.6575 28.5001 34.6188 28.6651 34.7014 28.8301C34.9384 29.0252 37.1253 29.1129 37.3344 28.9597C37.5435 28.8065 38.3661 26.6891 38.3661 26.2991C38.3661 26.0484 38.2825 25.9926 37.9618 25.9926C37.418 25.9926 36.6931 25.8394 36.6931 25.728C36.6931 25.6723 36.944 25.4494 37.2647 25.2126C37.5714 24.9897 38.0733 24.6136 38.3661 24.3907C39.9834 23.137 41.4194 22.1062 41.8377 21.8833C41.8377 21.8833 42.2607 21.6101 42.3117 21.6465C42.3628 21.683 42.3536 21.744 42.3117 21.953C42.2699 22.1619 42.2699 22.2316 42.2699 22.2316C42.2141 22.5659 42.0608 23.0395 41.9911 23.2763C41.9214 23.4992 41.6843 24.2932 41.4613 25.0176C41.2382 25.7419 40.9036 26.8702 40.7363 27.5249C40.0949 29.9487 39.3839 32.08 39.1887 32.2053C39.119 32.2471 38.3382 32.1775 37.432 32.0521C36.5397 31.9407 35.508 31.8432 35.1455 31.8432C34.5041 31.8432 34.4902 31.8432 34.4065 32.3586C34.3647 32.6511 34.2811 34.7545 34.2392 37.0251L34.1835 41.0368H34.6714C36.6233 40.9672 39.9416 40.3264 41.4194 39.6021C42.3815 39.1285 43.1064 38.3205 43.1064 37.7355C43.2459 37.1365 42.164 36.3895 41.4194 36.0221C41.3079 35.967 41.1928 35.7764 40.7711 36.0221C39.9453 36.5033 40.1105 36.5033 39.7388 36.5858C39.4498 36.65 39.0964 35.8132 38.7479 35.1167C37.9113 33.1665 38.4153 33.354 39.1887 33.4506C39.7464 33.5202 43.1504 34.6726 43.2898 34.8119C43.4 34.9221 43.1246 34.9357 42.8769 35.0182C42.6292 35.1007 42.7117 35.0595 42.6185 35.1167C42.5252 35.1739 42.8555 35.3117 42.981 35.3953C44.6401 36.4261 44.9886 36.9275 44.9886 38.0001C44.9886 38.5295 44.9189 38.8081 44.3055 39.4906C42.8973 40.9254 40.3738 41.9423 36.1354 42.4298C35.0897 42.5501 34.1802 42.6502 34.0408 42.6502C34.0408 42.7198 33.9743 44.1571 33.8907 45.9959C33.6279 52.7986 33.504 52.7986 33.2563 52.8811C32.4717 53.0049 32.6782 52.7986 32.4546 49.9798C32.4128 48.545 32.3292 46.2605 32.2873 44.8954L32.1827 42.6089C32.1827 42.6089 31.3569 42.5512 31.0465 42.4995C30.7361 42.4478 30.7403 42.4617 30.4888 42.4298C30.2373 42.398 29.9869 42.3741 29.5686 42.3045C29.1504 42.2348 28.3835 42.0955 27.8398 42.0119C26.9057 41.8448 26.3898 41.7333 25.1908 41.4269C24.1591 41.1622 21.8725 40.1593 21.3009 39.7135C20.4504 39.0727 20.1019 38.4738 20.1019 37.6658C20.1019 36.7604 20.4226 36.1336 21.2173 35.4371C22.4023 34.4202 25.2605 33.0969 26.2783 33.0969C26.3061 33.0968 27.0311 33.3755 27.5609 33.7237C28.1047 34.0719 28.6763 34.4063 28.8576 34.4898C29.0249 34.5595 29.234 34.6988 29.1643 34.8242C29.0249 34.9774 28.8994 35.1445 27.6307 35.5485C26.5153 35.8828 25.9576 36.2032 25.3023 36.83C23.699 38.3902 24.8143 39.6299 28.6763 40.5493C29.2201 40.6747 29.8614 40.7582 30.1402 40.8279C30.4051 40.8836 30.5585 40.8975 31.1162 40.9672C31.6739 41.0368 32.0782 41.0368 32.0782 41.0368V39.4628C32.0643 38.6131 31.9945 36.5514 31.9109 34.9077C31.9109 34.9077 31.9109 32.0521 31.7436 31.9128C31.5763 31.7735 31.0465 31.8426 31.0465 31.8426C31.0465 31.8426 29.6104 31.9267 28.7042 32.0521C27.6307 32.2053 26.9335 32.2611 26.9196 32.1636C26.7244 31.9128 25.9437 29.3915 25.5951 27.9428C25.4836 27.4413 25.3302 26.9677 25.2744 26.7588C25.1358 26.2394 24.3821 23.8753 24.0336 22.6216C23.7966 21.1172 23.7269 21.2292 24.9956 22.1759C25.4928 22.5469 26.035 22.9977 26.0552 23.0117C26.2364 23.137 26.4456 23.2763 26.7244 23.4853C27.0033 23.6942 27.2124 23.8474 27.2821 23.9032C27.6385 24.1881 27.5749 24.14 27.6307 24.1818C27.9792 24.4604 29.471 25.728 29.3874 25.8255C29.3455 25.8533 28.983 25.923 28.5787 25.9787C27.7143 26.0762 27.7143 26.0762 28.272 27.706C28.5648 28.5836 28.7181 28.8204 29.0109 28.9458C29.3874 29.0851 31.1023 29.0293 31.3811 28.8622C31.5763 28.7368 31.5763 27.901 31.395 25.2265C31.1441 21.7023 31.0047 20.5182 30.8095 20.4068C30.7119 20.3371 30.3633 20.2814 30.0287 20.2814H29.4153L29.5128 19.8217C29.5686 19.5849 29.7917 19.0556 30.0008 18.6795C30.3215 18.0944 31.8133 15.2388 32.7056 13.4837C32.845 13.2329 33.0263 13.0379 33.1099 13.0658C33.2075 13.0936 33.7791 14.0966 34.3926 15.2945Z" fill="white"/>
<path d="M76.9894 49.8633V14.4633H85.4374V49.8633H76.9894ZM95.6644 20.9433L99.5284 16.9833V31.2153L97.6084 28.8633H110.496V35.3433H97.6084L99.5284 33.0153V47.3433L95.6644 43.3833H113.16V49.8633H90.9124V14.4633H113.16V20.9433H95.6644ZM123.461 20.9433L127.325 16.9833V31.2153L125.405 28.8633H138.293V35.3433H125.405L127.325 33.0153V47.3433L123.461 43.3833H140.957V49.8633H118.709V14.4633H140.957V20.9433H123.461ZM151.258 20.9433L155.122 16.9833V31.2153L153.202 28.8633H166.09V35.3433H153.202L155.122 33.0153V47.3433L151.258 43.3833H168.754V49.8633H146.506V14.4633H168.754V20.9433H151.258Z" fill="white"/>
</svg>
